<svg xmlns="http://www.w3.org/2000/svg" viewBox="0 0 113.47 113.48"><defs><style>.cls-1{fill:#3c3c3b;}</style></defs><g id="Layer_2" data-name="Layer 2"><g id="Ebene_1" data-name="Ebene 1"><path class="cls-1" d="M56.74,0a56.74,56.74,0,1,0,56.73,56.74A56.8,56.8,0,0,0,56.74,0ZM5.1,56.74A51.6,51.6,0,0,1,88.16,15.8c-1.09,1.93-4.44,5.37-14.51,5.37-1.13,0-2.6,0-4.46.1-4.14.13-9.82.31-16.95.15A32,32,0,0,0,27.61,31.86a36.33,36.33,0,0,0-9.82,24.88A52.08,52.08,0,0,0,20,72.43C24.11,84.71,37.93,94,52.18,94h2.1v10.13h5.1V94H73.82l.23,0c.22,0,4.92-.55,11.48,5.65A51.62,51.62,0,0,1,5.1,56.74ZM89.67,96.48c-8-7.92-14.68-7.77-16.17-7.62H59.38V59.71h10v-5.1H44.25v5.1h10V88.86h-2.1c-12.15,0-23.89-7.75-27.31-18A43.88,43.88,0,0,1,23,59.71H38.7v-5.1H23A31.51,31.51,0,0,1,31.4,35.28a27,27,0,0,1,20.72-8.75c7.28.15,13,0,17.23-.16,1.82-.06,3.25-.1,4.3-.1,11.29,0,16.25-4,18.42-7.14a51.56,51.56,0,0,1-2.4,77.35Z"/><polygon class="cls-1" points="98.27 30.96 92.31 30.96 80.97 49.73 80.97 30.96 75.87 30.96 75.87 83.36 80.97 83.36 80.97 64.56 90.87 83.28 96.64 83.28 82.65 56.82 98.27 30.96"/></g></g></svg>