<svg xmlns="http://www.w3.org/2000/svg" viewBox="0 0 120 120"><defs><style>.cls-1{fill:#fff;}.cls-2{fill:#e31f25;}</style></defs><g id="Layer_2" data-name="Layer 2"><g id="Layer_1-2" data-name="Layer 1"><g id="Layer_1-3" data-name="Layer 1"><circle id="Ellipse_19" data-name="Ellipse 19" class="cls-1" cx="60" cy="60" r="60"/><path id="Path_109" data-name="Path 109" class="cls-2" d="M72.63,23.49c4-.18,6-.28,8-1a15.17,15.17,0,0,0,7.13-5.71,52,52,0,1,0-.5,87.76,15,15,0,0,0-6.63-5.05c-2-.71-4-.81-8-1-4.34-.2-7.6,0-8,0l-1,.06v10.94h-8V98.93a44.64,44.64,0,0,1-10-.44c-13.31-2.54-20.82-15.89-22-18a39.74,39.74,0,0,1-5-19,40.64,40.64,0,0,1,7-23,39.94,39.94,0,0,1,20-15Z"/><path id="Path_110" data-name="Path 110" class="cls-2" d="M94,21.49a24.24,24.24,0,0,1-3.36,4,20.41,20.41,0,0,1-8,5,25.91,25.91,0,0,1-7,1,46.2,46.2,0,0,1-6,0h-24a30.86,30.86,0,0,0-18.71,25h14.7v8h-15a29.31,29.31,0,0,0,5,15,30.05,30.05,0,0,0,14,11c3.87.09,7.16.15,10,.18V64.49h-10v-8h27v8h-9V90.68c2.7,0,4.62-.1,6-.19a50,50,0,0,1,6,0,25.91,25.91,0,0,1,7,1,20.72,20.72,0,0,1,8,5,24.25,24.25,0,0,1,2.93,3.39,52,52,0,0,0,5.51-73.26A51.15,51.15,0,0,0,94,21.49Zm-1.36,66Q88.76,79.75,84.88,72V87.5h-7.5v-54h7.5V48.36q3.7-7.44,7.43-14.87h8L87.46,60.16l13.17,27.33Z"/></g></g></g></svg>