<svg xmlns="http://www.w3.org/2000/svg" viewBox="0 0 120 120"><defs><style>.cls-1{fill:#ce5141;}.cls-2{fill:#fff;}.cls-3{fill:#e31f25;}</style></defs><g id="Layer_2" data-name="Layer 2"><g id="Layer_1-2" data-name="Layer 1"><path class="cls-1" d="M110,60a49.92,49.92,0,0,0-1.45-11.94H11.45A49.92,49.92,0,0,0,10,60a50.48,50.48,0,0,0,1.47,12.06h97.06A50.48,50.48,0,0,0,110,60Z"/><path class="cls-1" d="M103.33,35.06a50,50,0,0,0-86.66,0Z"/><path class="cls-1" d="M16.74,85.06a50,50,0,0,0,86.52,0Z"/><circle class="cls-2" cx="60" cy="60" r="60"/><circle class="cls-3" cx="60" cy="60" r="52"/><rect class="cls-2" x="34.92" y="41.52" width="50" height="7.38"/><rect class="cls-2" x="35.08" y="56.1" width="50" height="7.38"/><rect class="cls-2" x="35.08" y="71.1" width="50" height="7.38"/></g></g></svg>